<svg xmlns="http://www.w3.org/2000/svg" width="200" height="200" viewBox="0 0 200 200" version="1.1"><path d="M89.167 0.561 C 81.608 1.218,71.068 3.885,62.592 7.286 C 46.119 13.897,29.509 27.184,18.428 42.614 C 12.172 51.325,6.923 62.122,3.992 72.307 C 1.429 81.211,-0.029 91.904,0.608 97.123 C 0.870 99.279,0.878 100.848,0.633 102.500 C -0.270 108.582,1.999 122.237,5.673 132.833 C 12.626 152.886,27.124 171.297,45.667 183.621 C 57.986 191.808,70.736 196.656,85.833 198.894 C 92.058 199.816,108.151 199.729,114.500 198.737 C 132.412 195.941,148.616 188.953,162.165 178.182 C 166.576 174.675,174.552 166.698,178.012 162.333 C 188.408 149.220,195.701 132.958,198.473 116.716 C 198.954 113.901,199.494 111.323,199.673 110.988 C 199.867 110.625,200.000 105.989,200.000 99.564 C 200.000 90.861,199.904 88.477,199.506 87.350 C 199.234 86.580,198.777 84.573,198.491 82.891 C 195.946 67.942,188.191 50.389,179.094 38.988 C 174.916 33.753,166.529 25.363,161.070 20.959 C 152.184 13.791,139.239 7.359,126.177 3.623 C 122.491 2.568,114.681 1.197,109.381 0.674 C 106.227 0.363,92.345 0.285,89.167 0.561 M110.500 13.688 C 128.934 15.201,146.052 23.329,160.626 37.491 C 168.868 45.499,175.073 54.392,179.909 65.122 C 184.855 76.099,186.545 83.972,186.892 97.667 C 187.240 111.346,185.241 122.936,180.828 132.833 C 175.578 144.607,170.354 152.530,162.509 160.615 C 152.406 171.026,140.432 178.654,127.333 183.023 C 116.488 186.641,101.841 187.875,88.215 186.320 C 79.190 185.291,73.110 183.596,65.234 179.915 C 53.311 174.343,46.156 169.432,38.092 161.284 C 30.179 153.289,25.568 146.492,20.037 134.667 C 16.334 126.751,14.711 120.859,13.638 111.440 C 12.417 100.710,13.176 86.795,15.482 77.675 C 19.032 63.632,27.382 49.306,38.506 38.175 C 50.548 26.125,66.191 17.695,82.802 14.305 C 88.888 13.063,99.889 12.818,110.500 13.688 M97.249 50.341 C 90.872 51.948,87.188 57.639,88.082 64.500 C 89.381 74.472,101.893 78.386,108.815 70.985 C 111.672 67.930,112.718 64.135,111.850 59.971 C 111.237 57.035,110.186 55.195,107.992 53.223 C 105.253 50.760,100.571 49.504,97.249 50.341 M88.463 87.562 C 87.845 87.684,87.735 88.009,87.546 90.267 C 87.429 91.679,87.233 105.696,87.113 121.417 L 86.893 150.000 99.913 150.000 L 112.933 150.000 112.794 133.583 C 112.717 124.554,112.565 110.551,112.455 102.466 L 112.256 87.765 108.242 87.549 C 103.981 87.320,89.647 87.330,88.463 87.562 M0.077 99.667 C 0.077 100.308,0.146 100.571,0.230 100.250 C 0.314 99.929,0.314 99.404,0.230 99.083 C 0.146 98.763,0.077 99.025,0.077 99.667 " stroke="none" fill-rule="evenodd"></path></svg>