<svg xmlns="http://www.w3.org/2000/svg" width="138" height="200" viewBox="0 0 138 200" version="1.1">
	<path fill-opacity="0.133" d="M 59.499 50.001 L 9.505 100.003 59.750 150.247 L 109.994 200.492 119.242 191.245 L 128.489 181.998 87.499 140.999 L 46.509 100 87.492 59.008 L 128.475 18.016 119.508 9.008 C 114.577 4.054, 110.306 -0, 110.017 -0 C 109.729 -0, 86.995 22.501, 59.499 50.001" stroke="none" fill="black" fill-rule="evenodd"/>
	<path fill-opacity="0.303" d="M 59.499 50.001 L 9.505 100.003 59.743 150.240 L 109.980 200.478 118.998 191.502 L 128.016 182.525 86.763 141.263 L 45.509 100 86.763 58.737 L 128.016 17.475 119.238 8.737 C 114.411 3.932, 110.243 0, 109.976 0 C 109.710 0, 86.995 22.501, 59.499 50.001" stroke="none" fill="black" fill-rule="evenodd"/>
	<path fill-opacity="0.805" d="M 60.491 50.009 L 10.508 100 60.492 149.992 L 110.477 199.984 119.246 191.255 L 128.016 182.525 86.763 141.263 L 45.509 100 86.255 59.246 C 108.665 36.831, 127 18.033, 127 17.473 C 127 16.914, 123.282 12.757, 118.738 8.236 L 110.475 0.017 60.491 50.009" stroke="none" fill="black" fill-rule="evenodd"/>
	<path fill-opacity="0.933" d="M 59.999 50.501 L 10.505 100.003 60.242 149.740 L 109.979 199.477 118.498 191.002 L 127.018 182.527 85.763 141.263 L 44.509 100 85.763 58.737 L 127.018 17.473 118.738 9.237 C 114.184 4.707, 110.241 1, 109.975 1 C 109.710 1, 87.220 23.276, 59.999 50.501" stroke="none" fill="black" fill-rule="evenodd"/>
</svg>