<svg xmlns="http://www.w3.org/2000/svg" width="24" height="24" viewBox="0 0 24 24" version="1.1"><path d="M10.7 0.067C9.793 0.146 8.528 0.466 7.511 0.874C5.534 1.668 3.541 3.262 2.211 5.114C1.461 6.159 0.831 7.455 0.479 8.677C0.171 9.745 -0.003 11.028 0.073 11.655C0.104 11.913 0.105 12.102 0.076 12.3C-0.032 13.03 0.24 14.668 0.681 15.94C1.515 18.346 3.255 20.556 5.48 22.035C6.958 23.017 8.488 23.599 10.3 23.867C11.047 23.978 12.978 23.967 13.74 23.848C15.889 23.513 17.834 22.674 19.46 21.382C19.989 20.961 20.946 20.004 21.361 19.48C22.609 17.906 23.484 15.955 23.817 14.006C23.874 13.668 23.939 13.359 23.961 13.319C23.984 13.275 24 12.719 24 11.948C24 10.903 23.988 10.617 23.941 10.482C23.908 10.39 23.853 10.149 23.819 9.947C23.514 8.153 22.583 6.047 21.491 4.679C20.99 4.05 19.983 3.044 19.328 2.515C18.262 1.655 16.709 0.883 15.141 0.435C14.699 0.308 13.762 0.144 13.126 0.081C12.747 0.044 11.081 0.034 10.7 0.067M13.26 1.643C15.472 1.824 17.526 2.799 19.275 4.499C20.264 5.46 21.009 6.527 21.589 7.815C22.183 9.132 22.385 10.077 22.427 11.72C22.469 13.362 22.229 14.752 21.699 15.94C21.069 17.353 20.442 18.304 19.501 19.274C18.289 20.523 16.852 21.438 15.28 21.963C13.979 22.397 12.221 22.545 10.586 22.358C9.503 22.235 8.773 22.032 7.828 21.59C6.397 20.921 5.539 20.332 4.571 19.354C3.621 18.395 3.068 17.579 2.404 16.16C1.96 15.21 1.765 14.503 1.637 13.373C1.49 12.085 1.581 10.415 1.858 9.321C2.284 7.636 3.286 5.917 4.621 4.581C6.066 3.135 7.943 2.123 9.936 1.717C10.667 1.568 11.987 1.538 13.26 1.643M11.67 6.041C10.905 6.234 10.463 6.917 10.57 7.74C10.726 8.937 12.227 9.406 13.058 8.518C13.401 8.152 13.526 7.696 13.422 7.197C13.348 6.844 13.222 6.623 12.959 6.387C12.63 6.091 12.069 5.94 11.67 6.041M10.616 10.507C10.541 10.522 10.528 10.561 10.506 10.832C10.491 11.001 10.468 12.684 10.454 14.57L10.427 18 11.99 18L13.552 18 13.535 16.03C13.526 14.946 13.508 13.266 13.495 12.296L13.471 10.532 12.989 10.506C12.478 10.478 10.758 10.48 10.616 10.507M0.009 11.96C0.009 12.037 0.018 12.069 0.028 12.03C0.038 11.991 0.038 11.928 0.028 11.89C0.018 11.852 0.009 11.883 0.009 11.96" stroke="none" fill-rule="evenodd"/></svg>